<?xml version="1.0" encoding="UTF-8"?>
<svg xmlns="http://www.w3.org/2000/svg" style="stroke-dasharray:none; shape-rendering:auto; font-family:'Arial'; text-rendering:auto; fill-opacity:1; color-interpolation:auto; color-rendering:auto; font-size:12; fill:black; stroke:black; image-rendering:auto; stroke-miterlimit:10; stroke-linecap:square; stroke-linejoin:miter; font-style:normal; stroke-width:1; stroke-dashoffset:0; font-weight:normal; stroke-opacity:1;" contentScriptType="text/ecmascript" preserveAspectRatio="xMidYMid meet" zoomAndPan="magnify" version="1.0" contentStyleType="text/css" xml:xlink="http://www.w3.org/1999/xlink" width="1460" height="1061"><rect x="0" y="455" width="1460" height="155" ry="0" rx="0" style="stroke:#000000; fill:#9FC1C6" /><g componentSequence="126"><text x="-532" y="7" transform="rotate(270)" text-anchor="middle" style="font-weight:bold;font-size:10px;stroke:none; fill:#434343"><tspan dy="14" x="-532">Jurídico</tspan></text></g><rect x="0" y="747" width="1460" height="117" ry="0" rx="0" style="stroke:#000000; fill:#ADC9AC" /><g componentSequence="2"><text x="-805" y="7" transform="rotate(270)" text-anchor="middle" style="font-weight:bold;font-size:10px;stroke:none; fill:#434343"><tspan dy="14" x="-805">Aprovação Obra</tspan></text></g><rect x="0" y="304" width="1460" height="156" ry="0" rx="0" style="stroke:#000000; fill:#D0DAAE" /><g componentSequence="1"><text x="-382" y="7" transform="rotate(270)" text-anchor="middle" style="font-weight:bold;font-size:10px;stroke:none; fill:#434343"><tspan dy="14" x="-382">Aprovação Matriz</tspan></text></g><rect x="0" y="864" width="1460" height="197" ry="0" rx="0" style="stroke:#000000; fill:#C9C3AC" /><g componentSequence="3"><text x="-962" y="7" transform="rotate(270)" text-anchor="middle" style="font-weight:bold;font-size:10px;stroke:none; fill:#434343"><tspan dy="14" x="-962">Aprovações</tspan></text></g><rect x="0" y="609" width="1460" height="145" ry="0" rx="0" style="stroke:#000000; fill:#D6E0D0" /><g componentSequence="4"><text x="-681" y="7" transform="rotate(270)" text-anchor="middle" style="font-weight:bold;font-size:10px;stroke:none; fill:#434343"><tspan dy="14" x="-681">Controladoria</tspan></text></g><rect x="0" y="160" width="1460" height="145" ry="0" rx="0" style="stroke:#000000; fill:#82B0B7" /><g componentSequence="5"><text x="-232" y="7" transform="rotate(270)" text-anchor="middle" style="font-weight:bold;font-size:10px;stroke:none; fill:#434343"><tspan dy="14" x="-232">Obra</tspan></text></g><g sequence="7"><ellipse cx="87" cy="233" rx="17" ry="17" stroke-width="1" style="fill:url(#linearGradient66FF6696FF96B6FFB6_286070280);" stroke="336633" /></g><g sequence="9"><rect x="310" y="779" width="106" height="56" ry="5" rx="5" style="fill:url(#linearGradientF8FBFEEDF5FCDEEDFAD4E7F8E2E5E9_533396057);" stroke="191970" /></g><g componentSequence="9"><text x="363" y="796" text-anchor="middle" style="font-weight:bold;font-size:10px;stroke:none; fill:#333399"><tspan dy="14" x="363">Engenheiro</tspan></text></g><g sequence="11"><polygon points=" 470 793 500 763 530 793 500 823 470 793" style="fill:url(#linearGradientFAFBFCFFFFCC_469073272);" stroke="000000" /></g><g componentSequence="11"><text x="500" y="826" text-anchor="middle" style="font-weight:bold;font-size:10px;stroke:none; fill:#333399"><tspan dy="14" x="500">Decisão</tspan></text></g><g sequence="12"><polygon points=" 170 220 200 190 230 220 200 250 170 220" style="fill:url(#linearGradientFAFBFCFFFFCC_1593307234);" stroke="000000" /></g><g componentSequence="12"><text x="200" y="253" text-anchor="middle" style="font-weight:bold;font-size:10px;stroke:none; fill:#333399"><tspan dy="14" x="200">Decisão</tspan></text></g><g sequence="15"><rect x="147" y="473" width="106" height="56" ry="5" rx="5" style="fill:url(#linearGradientF8FBFEEDF5FCDEEDFAD4E7F8E2E5E9_666046690);" stroke="191970" /></g><g componentSequence="15"><text x="200" y="490" text-anchor="middle" style="font-weight:bold;font-size:10px;stroke:none; fill:#333399"><tspan dy="14" x="200">Jurídico</tspan></text></g><g sequence="16"><polygon points=" 170 582 200 552 230 582 200 612 170 582" style="fill:url(#linearGradientFAFBFCFFFFCC_1877159551);" stroke="000000" /></g><g componentSequence="16"><text x="200" y="615" text-anchor="middle" style="font-weight:bold;font-size:10px;stroke:none; fill:#333399"><tspan dy="14" x="200">Decisão</tspan></text></g><g sequence="19"><rect x="150" y="655" width="106" height="56" ry="5" rx="5" style="fill:url(#linearGradientF8FBFEEDF5FCDEEDFAD4E7F8E2E5E9_1598918726);" stroke="191970" /></g><g componentSequence="19"><text x="203" y="672" text-anchor="middle" style="font-weight:bold;font-size:10px;stroke:none; fill:#333399"><tspan dy="14" x="203">Controladoria</tspan></text></g><g sequence="20"><polygon points=" 330 669 360 639 390 669 360 699 330 669" style="fill:url(#linearGradientFAFBFCFFFFCC_1054347053);" stroke="000000" /></g><g componentSequence="20"><text x="360" y="702" text-anchor="middle" style="font-weight:bold;font-size:10px;stroke:none; fill:#333399"><tspan dy="14" x="360">Decisão</tspan></text></g><g sequence="23"><rect x="570" y="779" width="106" height="56" ry="5" rx="5" style="fill:url(#linearGradientF8FBFEEDF5FCDEEDFAD4E7F8E2E5E9_30616596);" stroke="191970" /></g><g componentSequence="23"><text x="623" y="796" text-anchor="middle" style="font-weight:bold;font-size:10px;stroke:none; fill:#333399"><tspan dy="14" x="623">Coord. Obras</tspan></text></g><g sequence="28"><polygon points=" 980 793 1010 763 1040 793 1010 823 980 793" style="fill:url(#linearGradientFAFBFCFFFFCC_2008382087);" stroke="000000" /></g><g componentSequence="28"><text x="1010" y="826" text-anchor="middle" style="font-weight:bold;font-size:10px;stroke:none; fill:#333399"><tspan dy="14" x="1010">Decisão</tspan></text></g><g sequence="29"><ellipse cx="1297" cy="907" rx="17" ry="17" stroke-width="3" style="fill:url(#linearGradientFF6666FF9696FFB6B6_1145641879);" stroke="993333" /></g><g sequence="30"><rect x="1090" y="964" width="106" height="70" ry="5" rx="5" style="fill:url(#linearGradientF8FBFEEDF5FCDEEDFAD4E7F8E2E5E9_982963540);" stroke="191970" /></g><g componentSequence="30"><text x="1143" y="979" text-anchor="middle" style="font-weight:bold;font-size:10px;stroke:none; fill:#333399"><tspan dy="14" x="1143">Assinatura</tspan><tspan dy="14" x="1143">Eletrônica</tspan></text></g><g sequence="31"><polygon points=" 1270 985 1300 955 1330 985 1300 1015 1270 985" style="fill:url(#linearGradientFAFBFCFFFFCC_574483870);" stroke="000000" /></g><g componentSequence="31"><text x="1300" y="1018" text-anchor="middle" style="font-weight:bold;font-size:10px;stroke:none; fill:#333399"><tspan dy="14" x="1300">Decisão</tspan></text></g><g sequence="32"><rect x="960" y="206" width="106" height="56" ry="5" rx="5" style="fill:url(#linearGradientF8FBFEEDF5FCDEEDFAD4E7F8E2E5E9_2122369564);" stroke="191970" /></g><g componentSequence="32"><text x="1013" y="223" text-anchor="middle" style="font-weight:bold;font-size:10px;stroke:none; fill:#333399"><tspan dy="14" x="1013">Adm. Obra</tspan></text></g><g sequence="33"><rect x="1130" y="765" width="106" height="84" ry="5" rx="5" style="fill:url(#linearGradientF8FBFEEDF5FCDEEDFAD4E7F8E2E5E9_1914299384);" stroke="191970" /></g><g componentSequence="33"><text x="1183" y="780" text-anchor="middle" style="font-weight:bold;font-size:10px;stroke:none; fill:#333399"><tspan dy="14" x="1183">Controladoria</tspan><tspan dy="14" x="1183">Aguardando</tspan><tspan dy="14" x="1183">Recebimento</tspan></text></g><g sequence="34"><rect x="1290" y="765" width="106" height="84" ry="5" rx="5" style="fill:url(#linearGradientF8FBFEEDF5FCDEEDFAD4E7F8E2E5E9_2125051034);" stroke="191970" /></g><g componentSequence="34"><text x="1343" y="780" text-anchor="middle" style="font-weight:bold;font-size:10px;stroke:none; fill:#333399"><tspan dy="14" x="1343">Controladoria</tspan><tspan dy="14" x="1343">recolhe</tspan><tspan dy="14" x="1343">assinaturas</tspan></text></g><g sequence="35"><rect x="1290" y="199" width="106" height="70" ry="5" rx="5" style="fill:url(#linearGradientF8FBFEEDF5FCDEEDFAD4E7F8E2E5E9_859174860);" stroke="191970" /></g><g componentSequence="35"><text x="1343" y="214" text-anchor="middle" style="font-weight:bold;font-size:10px;stroke:none; fill:#333399"><tspan dy="14" x="1343">Obra Recebe</tspan><tspan dy="14" x="1343">Vias Originais</tspan></text></g><g sequence="36"><ellipse cx="1437" cy="233" rx="17" ry="17" stroke-width="3" style="fill:url(#linearGradientFF6666FF9696FFB6B6_1260198812);" stroke="993333" /></g><g sequence="91"><ellipse cx="427" cy="637" rx="17" ry="17" stroke-width="3" style="fill:url(#linearGradientFF6666FF9696FFB6B6_1982215972);" stroke="993333" /></g><g sequence="99"><polygon points=" 250 330 280 300 310 330 280 360 250 330" style="fill:url(#linearGradientFAFBFCFFFFCC_1159221278);" stroke="000000" /></g><path style="fill:none; stroke-width:6; stroke:#000000;" d="M270.0 330.0 L290.0 330.0" /><path style="fill:none; stroke-width:6; stroke:#000000;" d="M280.0 320.0 L280.0 340.0" /><g componentSequence="99"><text x="280" y="363" text-anchor="middle" style="font-weight:bold;font-size:10px;stroke:none; fill:#333399"><tspan dy="14" x="280">Paralelo</tspan></text></g><g sequence="100"><rect x="370" y="316" width="106" height="56" ry="5" rx="5" style="fill:url(#linearGradientF8FBFEEDF5FCDEEDFAD4E7F8E2E5E9_1502561510);" stroke="191970" /></g><g componentSequence="100"><text x="423" y="333" text-anchor="middle" style="font-weight:bold;font-size:10px;stroke:none; fill:#333399"><tspan dy="14" x="423">Suprimentos</tspan></text></g><g sequence="101"><rect x="370" y="400" width="106" height="56" ry="5" rx="5" style="fill:url(#linearGradientF8FBFEEDF5FCDEEDFAD4E7F8E2E5E9_2062382512);" stroke="191970" /></g><g componentSequence="101"><text x="423" y="417" text-anchor="middle" style="font-weight:bold;font-size:10px;stroke:none; fill:#333399"><tspan dy="14" x="423">Segurança</tspan></text></g><g sequence="107"><polygon points=" 520 330 550 300 580 330 550 360 520 330" style="fill:url(#linearGradientFAFBFCFFFFCC_1026941662);" stroke="000000" /></g><path style="fill:none; stroke-width:6; stroke:#000000;" d="M540.0 330.0 L560.0 330.0" /><path style="fill:none; stroke-width:6; stroke:#000000;" d="M550.0 320.0 L550.0 340.0" /><g componentSequence="107"><text x="550" y="363" text-anchor="middle" style="font-weight:bold;font-size:10px;stroke:none; fill:#333399"><tspan dy="14" x="550">Join</tspan></text></g><g sequence="112"><polygon points=" 640 330 670 300 700 330 670 360 640 330" style="fill:url(#linearGradientFAFBFCFFFFCC_975883718);" stroke="000000" /></g><g componentSequence="112"><text x="670" y="363" text-anchor="middle" style="font-weight:bold;font-size:10px;stroke:none; fill:#333399"><tspan dy="14" x="670">Decisão</tspan></text></g><g sequence="116"><polygon points=" 710 793 740 763 770 793 740 823 710 793" style="fill:url(#linearGradientFAFBFCFFFFCC_429987345);" stroke="000000" /></g><g componentSequence="116"><text x="740" y="826" text-anchor="middle" style="font-weight:bold;font-size:10px;stroke:none; fill:#333399"><tspan dy="14" x="740">Decisão</tspan></text></g><g sequence="118"><rect x="810" y="779" width="106" height="56" ry="5" rx="5" style="fill:url(#linearGradientF8FBFEEDF5FCDEEDFAD4E7F8E2E5E9_141598816);" stroke="191970" /></g><g componentSequence="118"><text x="863" y="796" text-anchor="middle" style="font-weight:bold;font-size:10px;stroke:none; fill:#333399"><tspan dy="14" x="863">Diretoria</tspan></text></g><g sequence="136"><ellipse cx="1017" cy="907" rx="17" ry="17" stroke-width="1" style="fill:url(#linearGradientFFFF66FFFF96FFFFB6_440500386);" stroke="999900" /></g><g sequence="136"><rect x="1007" y="897" width="21" height="21" ry="0" rx="0" style="stroke:#000000; fill:none" /></g><g sequence="136"><path style="fill:none; stroke-width:1; stroke:#000000;" d="M1009.0 900.0 L1024.0 900.0" /></g><g sequence="136"><path style="fill:none; stroke-width:1; stroke:#000000;" d="M1009.0 905.0 L1024.0 905.0" /></g><g sequence="136"><path style="fill:none; stroke-width:1; stroke:#000000;" d="M1009.0 910.0 L1024.0 910.0" /></g><g sequence="136"><path style="fill:none; stroke-width:1; stroke:#000000;" d="M1009.0 915.0 L1024.0 915.0" /></g><g sequence="138"><polygon points=" 1120 894 1150 864 1180 894 1150 924 1120 894" style="fill:url(#linearGradientFAFBFCFFFFCC_1986603729);" stroke="000000" /></g><g componentSequence="138"><text x="1150" y="927" text-anchor="middle" style="font-weight:bold;font-size:10px;stroke:none; fill:#333399"><tspan dy="14" x="1150">Decisão</tspan></text></g><g componentSequence="42"><text x="453" y="807" style="font-size:10px;font-weight:none;stroke:none; fill:#333399" text-anchor="left" /></g><g componentSequence="46"><text x="96" y="746" style="font-size:10px;font-weight:none;stroke:none; fill:#333399" text-anchor="left" /></g><g componentSequence="48"><text x="210" y="375" style="font-size:10px;font-weight:none;stroke:none; fill:#333399" text-anchor="left" /></g><g componentSequence="53"><text x="210" y="540" style="font-size:10px;font-weight:none;stroke:none; fill:#333399" text-anchor="left" /></g><g componentSequence="55"><text x="211" y="647" style="font-size:10px;font-weight:none;stroke:none; fill:#333399" text-anchor="left" /></g><g componentSequence="56"><text x="97" y="464" style="font-size:10px;font-weight:none;stroke:none; fill:#333399" text-anchor="left" /></g><g componentSequence="61"><text x="303" y="683" style="font-size:10px;font-weight:none;stroke:none; fill:#333399" text-anchor="left" /></g><g componentSequence="63"><text x="97" y="643" style="font-size:10px;font-weight:none;stroke:none; fill:#333399" text-anchor="left" /></g><g componentSequence="78"><text x="1021" y="512" style="font-size:10px;font-weight:none;stroke:none; fill:#333399" text-anchor="left" /></g><g componentSequence="79"><text x="1243" y="999" style="font-size:10px;font-weight:none;stroke:none; fill:#333399" text-anchor="left" /></g><g componentSequence="80"><text x="1308" y="940" style="font-size:10px;font-weight:none;stroke:none; fill:#333399" text-anchor="left" /></g><g componentSequence="81"><text x="583" y="1042" style="font-size:10px;font-weight:none;stroke:none; fill:#333399" text-anchor="left" /></g><g componentSequence="82"><text x="1192" y="440" style="font-size:10px;font-weight:none;stroke:none; fill:#333399" text-anchor="left" /></g><g componentSequence="83"><text x="1273" y="807" style="font-size:10px;font-weight:none;stroke:none; fill:#333399" text-anchor="left" /></g><g componentSequence="84"><text x="1192" y="440" style="font-size:10px;font-weight:none;stroke:none; fill:#333399" text-anchor="left" /></g><g componentSequence="85"><text x="1353" y="517" style="font-size:10px;font-weight:none;stroke:none; fill:#333399" text-anchor="left" /></g><g componentSequence="86"><text x="1418" y="233" style="font-size:10px;font-weight:none;stroke:none; fill:#333399" text-anchor="left" /></g><g componentSequence="92"><text x="410" y="656" style="font-size:10px;font-weight:none;stroke:none; fill:#333399" text-anchor="left" /></g><g componentSequence="94"><text x="560" y="807" style="font-size:10px;font-weight:none;stroke:none; fill:#333399" text-anchor="left" /></g><g componentSequence="104"><text x="289" y="242" style="font-size:10px;font-weight:none;stroke:none; fill:#333399" text-anchor="left" /></g><g componentSequence="105"><text x="350" y="344" style="font-size:10px;font-weight:none;stroke:none; fill:#333399" text-anchor="left" /></g><g componentSequence="106"><text x="315" y="428" style="font-size:10px;font-weight:none;stroke:none; fill:#333399" text-anchor="left" /></g><g componentSequence="108"><text x="508" y="344" style="font-size:10px;font-weight:none;stroke:none; fill:#333399" text-anchor="left" /></g><g componentSequence="109"><text x="543" y="429" style="font-size:10px;font-weight:none;stroke:none; fill:#333399" text-anchor="left" /></g><g componentSequence="113"><text x="620" y="344" style="font-size:10px;font-weight:none;stroke:none; fill:#333399" text-anchor="left" /></g><g componentSequence="114"><text x="431" y="177" style="font-size:10px;font-weight:none;stroke:none; fill:#333399" text-anchor="left" /></g><g componentSequence="115"><text x="527" y="500" style="font-size:10px;font-weight:none;stroke:none; fill:#333399" text-anchor="left" /></g><g componentSequence="119"><text x="800" y="807" style="font-size:10px;font-weight:none;stroke:none; fill:#333399" text-anchor="left" /></g><g componentSequence="120"><text x="863" y="745" style="font-size:10px;font-weight:none;stroke:none; fill:#333399" text-anchor="left" /></g><g componentSequence="121"><text x="958" y="807" style="font-size:10px;font-weight:none;stroke:none; fill:#333399" text-anchor="left" /></g><g componentSequence="123"><text x="147" y="233" style="font-size:10px;font-weight:none;stroke:none; fill:#333399" text-anchor="left" /></g><g componentSequence="124"><text x="372" y="753" style="font-size:10px;font-weight:none;stroke:none; fill:#333399" text-anchor="left" /></g><g componentSequence="125"><text x="703" y="807" style="font-size:10px;font-weight:none;stroke:none; fill:#333399" text-anchor="left" /></g><g componentSequence="127"><text x="274" y="903" style="font-size:10px;font-weight:none;stroke:none; fill:#333399" text-anchor="left" /></g><g componentSequence="128"><text x="389" y="904" style="font-size:10px;font-weight:none;stroke:none; fill:#333399" text-anchor="left" /></g><g componentSequence="129"><text x="680" y="861" style="font-size:10px;font-weight:none;stroke:none; fill:#333399" text-anchor="left" /></g><g componentSequence="130"><text x="764" y="745" style="font-size:10px;font-weight:none;stroke:none; fill:#333399" text-anchor="left" /></g><g componentSequence="131"><text x="287" y="589" style="font-size:10px;font-weight:none;stroke:none; fill:#333399" text-anchor="left" /></g><g componentSequence="132"><text x="518" y="905" style="font-size:10px;font-weight:none;stroke:none; fill:#333399" text-anchor="left" /></g><g componentSequence="137"><text x="1025" y="870" style="font-size:10px;font-weight:none;stroke:none; fill:#333399" text-anchor="left" /></g><g componentSequence="139"><text x="1240" y="907" style="font-size:10px;font-weight:none;stroke:none; fill:#333399" text-anchor="left" /></g><g componentSequence="140"><text x="1156" y="958" style="font-size:10px;font-weight:none;stroke:none; fill:#333399" text-anchor="left" /></g><g componentSequence="141"><text x="1087" y="907" style="font-size:10px;font-weight:none;stroke:none; fill:#333399" text-anchor="left" /></g><path style="fill:none; stroke:#000000;stroke-width:1" d="M104.0 233.0 L169.0 233.0" /><polygon style="fill:#000000; stroke:#000000;" points=" 159 228 169 233 159 238 161 233" /><path style="fill:none; stroke:#000000;stroke-width:1" d="M469.0 827.0 L433.0 851.0 L86.0 851.0 L86.0 438.0 L86.0 276.0 L87.0 250.0" /><polygon style="fill:#000000; stroke:#000000;" points=" 82 260 87 250 92 260 87 258" /><path style="fill:none; stroke:#000000;stroke-width:1" d="M169.0 595.0 L87.0 595.0 L87.0 251.0" /><polygon style="fill:#000000; stroke:#000000;" points=" 82 261 87 251 92 261 87 259" /><path style="fill:none; stroke:#000000;stroke-width:1" d="M361.0 727.0 L361.0 744.0 L87.0 744.0 L87.0 251.0" /><polygon style="fill:#000000; stroke:#000000;" points=" 82 261 87 251 92 261 87 259" /><path style="fill:none; stroke:#000000;stroke-width:1" d="M670.0 299.0 L670.0 177.0 L89.0 177.0 L87.0 216.0" /><polygon style="fill:#000000; stroke:#000000;" points=" 93 206 87 216 83 206 87 208" /><path style="fill:none; stroke:#000000;stroke-width:1" d="M416.0 807.0 L469.0 807.0" /><polygon style="fill:#000000; stroke:#000000;" points=" 459 802 469 807 459 812 461 807" /><path style="fill:none; stroke:#000000;stroke-width:1" d="M361.0 727.0 L362.0 778.0" /><polygon style="fill:#000000; stroke:#000000;" points=" 367 768 362 778 357 768 362 770" /><path style="fill:none; stroke:#000000;stroke-width:1" d="M530.0 807.0 L569.0 807.0" /><polygon style="fill:#000000; stroke:#000000;" points=" 559 802 569 807 559 812 561 807" /><path style="fill:none; stroke:#000000;stroke-width:1" d="M482.0 851.0 L461.0 903.0 L203.0 903.0 L203.0 711.0" /><polygon style="fill:#000000; stroke:#000000;" points=" 198 721 203 711 208 721 203 719" /><path style="fill:none; stroke:#000000;stroke-width:1" d="M530.0 839.0 L551.0 861.0 L765.0 861.0 L812.0 835.0" /><polygon style="fill:#000000; stroke:#000000;" points=" 801 835 812 835 806 844 805 839" /><path style="fill:none; stroke:#000000;stroke-width:1" d="M529.0 762.0 L541.0 744.0 L966.0 745.0 L979.0 763.0" /><polygon style="fill:#000000; stroke:#000000;" points=" 977 752 979 763 969 758 974 757" /><path style="fill:none; stroke:#000000;stroke-width:1" d="M200.0 278.0 L200.0 472.0" /><polygon style="fill:#000000; stroke:#000000;" points=" 205 462 200 472 195 462 200 464" /><path style="fill:none; stroke:#000000;stroke-width:1" d="M230.0 233.0 L279.0 233.0 L279.0 299.0" /><polygon style="fill:#000000; stroke:#000000;" points=" 284 289 279 299 274 289 279 291" /><path style="fill:none; stroke:#000000;stroke-width:1" d="M200.0 529.0 L200.0 551.0" /><polygon style="fill:#000000; stroke:#000000;" points=" 205 541 200 551 195 541 200 543" /><path style="fill:none; stroke:#000000;stroke-width:1" d="M669.0 388.0 L669.0 500.0 L253.0 500.0" /><polygon style="fill:#000000; stroke:#000000;" points=" 263 505 253 500 263 495 261 500" /><path style="fill:none; stroke:#000000;stroke-width:1" d="M329.0 648.0 L225.0 529.0" /><polygon style="fill:#000000; stroke:#000000;" points=" 228 540 225 529 235 533 230 535" /><path style="fill:none; stroke:#000000;stroke-width:1" d="M201.0 640.0 L202.0 654.0" /><polygon style="fill:#000000; stroke:#000000;" points=" 206 644 202 654 196 644 201 646" /><path style="fill:none; stroke:#000000;stroke-width:1" d="M256.0 683.0 L329.0 683.0" /><polygon style="fill:#000000; stroke:#000000;" points=" 319 678 329 683 319 688 321 683" /><path style="fill:none; stroke:#000000;stroke-width:1" d="M1269.0 1020.0 L1239.0 1042.0 L200.0 1042.0 L202.0 711.0" /><polygon style="fill:#000000; stroke:#000000;" points=" 197 721 202 711 207 721 202 719" /><path style="fill:none; stroke:#000000;stroke-width:1" d="M716.0 851.0 L688.0 904.0 L203.0 904.0 L203.0 711.0" /><polygon style="fill:#000000; stroke:#000000;" points=" 198 721 203 711 208 721 203 719" /><path style="fill:none; stroke:#000000;stroke-width:1" d="M979.0 843.0 L928.0 904.0 L202.0 905.0 L202.0 711.0" /><polygon style="fill:#000000; stroke:#000000;" points=" 197 721 202 711 207 721 202 719" /><path style="fill:none; stroke:#000000;stroke-width:1" d="M390.0 662.0 L413.0 647.0" /><polygon style="fill:#000000; stroke:#000000;" points=" 402 648 413 647 407 657 406 651" /><path style="fill:none; stroke:#000000;stroke-width:1" d="M676.0 807.0 L709.0 807.0" /><polygon style="fill:#000000; stroke:#000000;" points=" 699 802 709 807 699 812 701 807" /><path style="fill:none; stroke:#000000;stroke-width:1" d="M1010.0 762.0 L1012.0 262.0" /><polygon style="fill:#000000; stroke:#000000;" points=" 1007 272 1012 262 1017 272 1012 270" /><path style="fill:none; stroke:#000000;stroke-width:1" d="M1013.0 851.0 L1016.0 890.0" /><polygon style="fill:#000000; stroke:#000000;" points=" 1020 880 1016 890 1010 880 1015 882" /><path style="fill:none; stroke:#000000;stroke-width:1" d="M736.0 762.0 L735.0 745.0 L966.0 745.0 L979.0 763.0" /><polygon style="fill:#000000; stroke:#000000;" points=" 977 752 979 763 969 758 974 757" /><path style="fill:none; stroke:#000000;stroke-width:1" d="M916.0 807.0 L979.0 807.0" /><polygon style="fill:#000000; stroke:#000000;" points=" 969 802 979 807 969 812 971 807" /><path style="fill:none; stroke:#000000;stroke-width:1" d="M1298.0 954.0 L1297.0 924.0" /><polygon style="fill:#000000; stroke:#000000;" points=" 1292 934 1297 924 1302 934 1297 932" /><path style="fill:none; stroke:#000000;stroke-width:1" d="M1180.0 907.0 L1280.0 907.0" /><polygon style="fill:#000000; stroke:#000000;" points=" 1270 902 1280 907 1270 912 1272 907" /><path style="fill:none; stroke:#000000;stroke-width:1" d="M1196.0 999.0 L1269.0 999.0" /><polygon style="fill:#000000; stroke:#000000;" points=" 1259 994 1269 999 1259 1004 1261 999" /><path style="fill:none; stroke:#000000;stroke-width:1" d="M1146.0 952.0 L1145.0 963.0" /><polygon style="fill:#000000; stroke:#000000;" points=" 1151 953 1145 963 1141 953 1146 955" /><path style="fill:none; stroke:#000000;stroke-width:1" d="M1066.0 233.0 L1182.0 232.0 L1182.0 764.0" /><polygon style="fill:#000000; stroke:#000000;" points=" 1187 754 1182 764 1177 754 1182 756" /><path style="fill:none; stroke:#009600;stroke-width:1" d="M1182.0 764.0 L1182.0 232.0 L1066.0 233.0" /><polygon style="fill:#009600; stroke:#009600;" points=" 1076 238 1066 233 1076 228 1074 233" /><path style="fill:none; stroke:#000000;stroke-width:1" d="M1236.0 807.0 L1289.0 807.0" /><polygon style="fill:#000000; stroke:#000000;" points=" 1279 802 1289 807 1279 812 1281 807" /><path style="fill:none; stroke:#000000;stroke-width:1" d="M1343.0 764.0 L1343.0 269.0" /><polygon style="fill:#000000; stroke:#000000;" points=" 1338 279 1343 269 1348 279 1343 277" /><path style="fill:none; stroke:#000000;stroke-width:1" d="M1396.0 233.0 L1420.0 233.0" /><polygon style="fill:#000000; stroke:#000000;" points=" 1410 228 1420 233 1410 238 1412 233" /><path style="fill:none; stroke:#000000;stroke-width:1" d="M310.0 344.0 L369.0 344.0" /><polygon style="fill:#000000; stroke:#000000;" points=" 359 339 369 344 359 349 361 344" /><path style="fill:none; stroke:#000000;stroke-width:1" d="M280.0 388.0 L280.0 428.0 L369.0 428.0" /><polygon style="fill:#000000; stroke:#000000;" points=" 359 423 369 428 359 433 361 428" /><path style="fill:none; stroke:#000000;stroke-width:1" d="M476.0 344.0 L519.0 344.0" /><polygon style="fill:#000000; stroke:#000000;" points=" 509 339 519 344 509 349 511 344" /><path style="fill:none; stroke:#000000;stroke-width:1" d="M476.0 428.0 L549.0 429.0 L549.0 388.0" /><polygon style="fill:#000000; stroke:#000000;" points=" 544 398 549 388 554 398 549 396" /><path style="fill:none; stroke:#000000;stroke-width:1" d="M580.0 344.0 L639.0 344.0" /><polygon style="fill:#000000; stroke:#000000;" points=" 629 339 639 344 629 349 631 344" /><path style="fill:none; stroke:#000000;stroke-width:1" d="M770.0 807.0 L809.0 807.0" /><polygon style="fill:#000000; stroke:#000000;" points=" 799 802 809 807 799 812 801 807" /><path style="fill:none; stroke:#000000;stroke-width:1" d="M1034.0 907.0 L1119.0 907.0" /><polygon style="fill:#000000; stroke:#000000;" points=" 1109 902 1119 907 1109 912 1111 907" /><defs><linearGradient xmlns:xlink="http://www.w3.org/1999/xlink" xlink:href="#linearGradient66FF6696FF96B6FFB6" id="linearGradient66FF6696FF96B6FFB6_286070280" x1="0" y1="216.0" x2="0" y2="251.0" gradientUnits="userSpaceOnUse" xlink:type="simple" xlink:actuate="onLoad" xlink:show="other" /><linearGradient id="linearGradient66FF6696FF96B6FFB6"><stop style="stop-color:#66FF66;stop-opacity:1;" offset="0.0" id="stop66FF66" /><stop style="stop-color:#96FF96;stop-opacity:1;" offset="0.5" id="stop96FF96" /><stop style="stop-color:#B6FFB6;stop-opacity:1;" offset="1.0" id="stopB6FFB6" /></linearGradient><linearGradient xmlns:xlink="http://www.w3.org/1999/xlink" xlink:href="#linearGradientF8FBFEEDF5FCDEEDFAD4E7F8E2E5E9" id="linearGradientF8FBFEEDF5FCDEEDFAD4E7F8E2E5E9_533396057" x1="0" y1="779.0" x2="0" y2="885.0" gradientUnits="userSpaceOnUse" xlink:type="simple" xlink:actuate="onLoad" xlink:show="other" /><linearGradient id="linearGradientF8FBFEEDF5FCDEEDFAD4E7F8E2E5E9"><stop style="stop-color:#F8FBFE;stop-opacity:1;" offset="0.0" id="stopF8FBFE" /><stop style="stop-color:#EDF5FC;stop-opacity:1;" offset="0.25" id="stopEDF5FC" /><stop style="stop-color:#DEEDFA;stop-opacity:1;" offset="0.5" id="stopDEEDFA" /><stop style="stop-color:#D4E7F8;stop-opacity:1;" offset="0.75" id="stopD4E7F8" /><stop style="stop-color:#E2E5E9;stop-opacity:1;" offset="1.0" id="stopE2E5E9" /></linearGradient><linearGradient xmlns:xlink="http://www.w3.org/1999/xlink" xlink:href="#linearGradientFAFBFCFFFFCC" id="linearGradientFAFBFCFFFFCC_469073272" x1="0" y1="763.0" x2="0" y2="823.0" gradientUnits="userSpaceOnUse" xlink:type="simple" xlink:actuate="onLoad" xlink:show="other" /><linearGradient id="linearGradientFAFBFCFFFFCC"><stop style="stop-color:#FAFBFC;stop-opacity:1;" offset="0.0" id="stopFAFBFC" /><stop style="stop-color:#FFFFCC;stop-opacity:1;" offset="1.0" id="stopFFFFCC" /></linearGradient><linearGradient xmlns:xlink="http://www.w3.org/1999/xlink" xlink:href="#linearGradientFAFBFCFFFFCC" id="linearGradientFAFBFCFFFFCC_1593307234" x1="0" y1="190.0" x2="0" y2="250.0" gradientUnits="userSpaceOnUse" xlink:type="simple" xlink:actuate="onLoad" xlink:show="other" /><linearGradient xmlns:xlink="http://www.w3.org/1999/xlink" xlink:href="#linearGradientF8FBFEEDF5FCDEEDFAD4E7F8E2E5E9" id="linearGradientF8FBFEEDF5FCDEEDFAD4E7F8E2E5E9_666046690" x1="0" y1="473.0" x2="0" y2="579.0" gradientUnits="userSpaceOnUse" xlink:type="simple" xlink:actuate="onLoad" xlink:show="other" /><linearGradient xmlns:xlink="http://www.w3.org/1999/xlink" xlink:href="#linearGradientFAFBFCFFFFCC" id="linearGradientFAFBFCFFFFCC_1877159551" x1="0" y1="552.0" x2="0" y2="612.0" gradientUnits="userSpaceOnUse" xlink:type="simple" xlink:actuate="onLoad" xlink:show="other" /><linearGradient xmlns:xlink="http://www.w3.org/1999/xlink" xlink:href="#linearGradientF8FBFEEDF5FCDEEDFAD4E7F8E2E5E9" id="linearGradientF8FBFEEDF5FCDEEDFAD4E7F8E2E5E9_1598918726" x1="0" y1="655.0" x2="0" y2="761.0" gradientUnits="userSpaceOnUse" xlink:type="simple" xlink:actuate="onLoad" xlink:show="other" /><linearGradient xmlns:xlink="http://www.w3.org/1999/xlink" xlink:href="#linearGradientFAFBFCFFFFCC" id="linearGradientFAFBFCFFFFCC_1054347053" x1="0" y1="639.0" x2="0" y2="699.0" gradientUnits="userSpaceOnUse" xlink:type="simple" xlink:actuate="onLoad" xlink:show="other" /><linearGradient xmlns:xlink="http://www.w3.org/1999/xlink" xlink:href="#linearGradientF8FBFEEDF5FCDEEDFAD4E7F8E2E5E9" id="linearGradientF8FBFEEDF5FCDEEDFAD4E7F8E2E5E9_30616596" x1="0" y1="779.0" x2="0" y2="885.0" gradientUnits="userSpaceOnUse" xlink:type="simple" xlink:actuate="onLoad" xlink:show="other" /><linearGradient xmlns:xlink="http://www.w3.org/1999/xlink" xlink:href="#linearGradientFAFBFCFFFFCC" id="linearGradientFAFBFCFFFFCC_2008382087" x1="0" y1="763.0" x2="0" y2="823.0" gradientUnits="userSpaceOnUse" xlink:type="simple" xlink:actuate="onLoad" xlink:show="other" /><linearGradient xmlns:xlink="http://www.w3.org/1999/xlink" xlink:href="#linearGradientFF6666FF9696FFB6B6" id="linearGradientFF6666FF9696FFB6B6_1145641879" x1="0" y1="890.0" x2="0" y2="925.0" gradientUnits="userSpaceOnUse" xlink:type="simple" xlink:actuate="onLoad" xlink:show="other" /><linearGradient id="linearGradientFF6666FF9696FFB6B6"><stop style="stop-color:#FF6666;stop-opacity:1;" offset="0.0" id="stopFF6666" /><stop style="stop-color:#FF9696;stop-opacity:1;" offset="0.5" id="stopFF9696" /><stop style="stop-color:#FFB6B6;stop-opacity:1;" offset="1.0" id="stopFFB6B6" /></linearGradient><linearGradient xmlns:xlink="http://www.w3.org/1999/xlink" xlink:href="#linearGradientF8FBFEEDF5FCDEEDFAD4E7F8E2E5E9" id="linearGradientF8FBFEEDF5FCDEEDFAD4E7F8E2E5E9_982963540" x1="0" y1="964.0" x2="0" y2="1070.0" gradientUnits="userSpaceOnUse" xlink:type="simple" xlink:actuate="onLoad" xlink:show="other" /><linearGradient xmlns:xlink="http://www.w3.org/1999/xlink" xlink:href="#linearGradientFAFBFCFFFFCC" id="linearGradientFAFBFCFFFFCC_574483870" x1="0" y1="955.0" x2="0" y2="1015.0" gradientUnits="userSpaceOnUse" xlink:type="simple" xlink:actuate="onLoad" xlink:show="other" /><linearGradient xmlns:xlink="http://www.w3.org/1999/xlink" xlink:href="#linearGradientF8FBFEEDF5FCDEEDFAD4E7F8E2E5E9" id="linearGradientF8FBFEEDF5FCDEEDFAD4E7F8E2E5E9_2122369564" x1="0" y1="206.0" x2="0" y2="312.0" gradientUnits="userSpaceOnUse" xlink:type="simple" xlink:actuate="onLoad" xlink:show="other" /><linearGradient xmlns:xlink="http://www.w3.org/1999/xlink" xlink:href="#linearGradientF8FBFEEDF5FCDEEDFAD4E7F8E2E5E9" id="linearGradientF8FBFEEDF5FCDEEDFAD4E7F8E2E5E9_1914299384" x1="0" y1="765.0" x2="0" y2="871.0" gradientUnits="userSpaceOnUse" xlink:type="simple" xlink:actuate="onLoad" xlink:show="other" /><linearGradient xmlns:xlink="http://www.w3.org/1999/xlink" xlink:href="#linearGradientF8FBFEEDF5FCDEEDFAD4E7F8E2E5E9" id="linearGradientF8FBFEEDF5FCDEEDFAD4E7F8E2E5E9_2125051034" x1="0" y1="765.0" x2="0" y2="871.0" gradientUnits="userSpaceOnUse" xlink:type="simple" xlink:actuate="onLoad" xlink:show="other" /><linearGradient xmlns:xlink="http://www.w3.org/1999/xlink" xlink:href="#linearGradientF8FBFEEDF5FCDEEDFAD4E7F8E2E5E9" id="linearGradientF8FBFEEDF5FCDEEDFAD4E7F8E2E5E9_859174860" x1="0" y1="199.0" x2="0" y2="305.0" gradientUnits="userSpaceOnUse" xlink:type="simple" xlink:actuate="onLoad" xlink:show="other" /><linearGradient xmlns:xlink="http://www.w3.org/1999/xlink" xlink:href="#linearGradientFF6666FF9696FFB6B6" id="linearGradientFF6666FF9696FFB6B6_1260198812" x1="0" y1="216.0" x2="0" y2="251.0" gradientUnits="userSpaceOnUse" xlink:type="simple" xlink:actuate="onLoad" xlink:show="other" /><linearGradient xmlns:xlink="http://www.w3.org/1999/xlink" xlink:href="#linearGradientFF6666FF9696FFB6B6" id="linearGradientFF6666FF9696FFB6B6_1982215972" x1="0" y1="620.0" x2="0" y2="655.0" gradientUnits="userSpaceOnUse" xlink:type="simple" xlink:actuate="onLoad" xlink:show="other" /><linearGradient xmlns:xlink="http://www.w3.org/1999/xlink" xlink:href="#linearGradientFAFBFCFFFFCC" id="linearGradientFAFBFCFFFFCC_1159221278" x1="0" y1="300.0" x2="0" y2="360.0" gradientUnits="userSpaceOnUse" xlink:type="simple" xlink:actuate="onLoad" xlink:show="other" /><linearGradient xmlns:xlink="http://www.w3.org/1999/xlink" xlink:href="#linearGradientF8FBFEEDF5FCDEEDFAD4E7F8E2E5E9" id="linearGradientF8FBFEEDF5FCDEEDFAD4E7F8E2E5E9_1502561510" x1="0" y1="316.0" x2="0" y2="422.0" gradientUnits="userSpaceOnUse" xlink:type="simple" xlink:actuate="onLoad" xlink:show="other" /><linearGradient xmlns:xlink="http://www.w3.org/1999/xlink" xlink:href="#linearGradientF8FBFEEDF5FCDEEDFAD4E7F8E2E5E9" id="linearGradientF8FBFEEDF5FCDEEDFAD4E7F8E2E5E9_2062382512" x1="0" y1="400.0" x2="0" y2="506.0" gradientUnits="userSpaceOnUse" xlink:type="simple" xlink:actuate="onLoad" xlink:show="other" /><linearGradient xmlns:xlink="http://www.w3.org/1999/xlink" xlink:href="#linearGradientFAFBFCFFFFCC" id="linearGradientFAFBFCFFFFCC_1026941662" x1="0" y1="300.0" x2="0" y2="360.0" gradientUnits="userSpaceOnUse" xlink:type="simple" xlink:actuate="onLoad" xlink:show="other" /><linearGradient xmlns:xlink="http://www.w3.org/1999/xlink" xlink:href="#linearGradientFAFBFCFFFFCC" id="linearGradientFAFBFCFFFFCC_975883718" x1="0" y1="300.0" x2="0" y2="360.0" gradientUnits="userSpaceOnUse" xlink:type="simple" xlink:actuate="onLoad" xlink:show="other" /><linearGradient xmlns:xlink="http://www.w3.org/1999/xlink" xlink:href="#linearGradientFAFBFCFFFFCC" id="linearGradientFAFBFCFFFFCC_429987345" x1="0" y1="763.0" x2="0" y2="823.0" gradientUnits="userSpaceOnUse" xlink:type="simple" xlink:actuate="onLoad" xlink:show="other" /><linearGradient xmlns:xlink="http://www.w3.org/1999/xlink" xlink:href="#linearGradientF8FBFEEDF5FCDEEDFAD4E7F8E2E5E9" id="linearGradientF8FBFEEDF5FCDEEDFAD4E7F8E2E5E9_141598816" x1="0" y1="779.0" x2="0" y2="885.0" gradientUnits="userSpaceOnUse" xlink:type="simple" xlink:actuate="onLoad" xlink:show="other" /><linearGradient xmlns:xlink="http://www.w3.org/1999/xlink" xlink:href="#linearGradientFFFF66FFFF96FFFFB6" id="linearGradientFFFF66FFFF96FFFFB6_440500386" x1="0" y1="890.0" x2="0" y2="925.0" gradientUnits="userSpaceOnUse" xlink:type="simple" xlink:actuate="onLoad" xlink:show="other" /><linearGradient id="linearGradientFFFF66FFFF96FFFFB6"><stop style="stop-color:#FFFF66;stop-opacity:1;" offset="0.0" id="stopFFFF66" /><stop style="stop-color:#FFFF96;stop-opacity:1;" offset="0.5" id="stopFFFF96" /><stop style="stop-color:#FFFFB6;stop-opacity:1;" offset="1.0" id="stopFFFFB6" /></linearGradient><linearGradient xmlns:xlink="http://www.w3.org/1999/xlink" xlink:href="#linearGradientFAFBFCFFFFCC" id="linearGradientFAFBFCFFFFCC_1986603729" x1="0" y1="864.0" x2="0" y2="924.0" gradientUnits="userSpaceOnUse" xlink:type="simple" xlink:actuate="onLoad" xlink:show="other" /></defs></svg>
